<svg width="247" height="36" viewBox="0 0 247 36" fill="none" xmlns="http://www.w3.org/2000/svg">
<path d="M0.34 28V3.052H15.208L14.596 7.264H6.244V13.888H13.516V18.1H6.244V28H0.34ZM30.8224 22.456C30.8224 23.176 30.9184 23.704 31.1104 24.04C31.3264 24.376 31.6624 24.628 32.1184 24.796L30.9304 28.504C29.7544 28.408 28.7944 28.156 28.0504 27.748C27.3064 27.316 26.7304 26.644 26.3224 25.732C25.0744 27.652 23.1544 28.612 20.5624 28.612C18.6664 28.612 17.1544 28.06 16.0264 26.956C14.8984 25.852 14.3344 24.412 14.3344 22.636C14.3344 20.548 15.1024 18.952 16.6384 17.848C18.1744 16.744 20.3944 16.192 23.2984 16.192H25.2424V15.364C25.2424 14.236 25.0024 13.468 24.5224 13.06C24.0424 12.628 23.2024 12.412 22.0024 12.412C21.3784 12.412 20.6224 12.508 19.7344 12.7C18.8464 12.868 17.9344 13.108 16.9984 13.42L15.7024 9.676C16.9024 9.22 18.1264 8.872 19.3744 8.632C20.6464 8.392 21.8224 8.272 22.9024 8.272C25.6384 8.272 27.6424 8.836 28.9144 9.964C30.1864 11.092 30.8224 12.784 30.8224 15.04V22.456ZM22.2184 24.544C23.5144 24.544 24.5224 23.932 25.2424 22.708V19.324H23.8384C22.5424 19.324 21.5704 19.552 20.9224 20.008C20.2984 20.464 19.9864 21.172 19.9864 22.132C19.9864 22.9 20.1784 23.5 20.5624 23.932C20.9704 24.34 21.5224 24.544 22.2184 24.544ZM41.7335 8.272C43.1015 8.272 44.3855 8.476 45.5855 8.884C46.7855 9.292 47.8415 9.868 48.7535 10.612L46.6655 13.816C45.1055 12.832 43.5335 12.34 41.9495 12.34C41.2055 12.34 40.6295 12.472 40.2215 12.736C39.8375 12.976 39.6455 13.324 39.6455 13.78C39.6455 14.14 39.7295 14.44 39.8975 14.68C40.0895 14.896 40.4615 15.124 41.0135 15.364C41.5655 15.604 42.4175 15.892 43.5695 16.228C45.5615 16.804 47.0375 17.56 47.9975 18.496C48.9815 19.408 49.4735 20.68 49.4735 22.312C49.4735 23.608 49.1015 24.736 48.3575 25.696C47.6135 26.632 46.5935 27.352 45.2975 27.856C44.0015 28.36 42.5615 28.612 40.9775 28.612C39.3695 28.612 37.8695 28.36 36.4775 27.856C35.1095 27.352 33.9455 26.656 32.9855 25.768L35.7575 22.672C37.3655 23.92 39.0575 24.544 40.8335 24.544C41.6975 24.544 42.3695 24.388 42.8495 24.076C43.3535 23.764 43.6055 23.32 43.6055 22.744C43.6055 22.288 43.5095 21.928 43.3175 21.664C43.1255 21.4 42.7535 21.16 42.2015 20.944C41.6495 20.704 40.7735 20.416 39.5735 20.08C37.6775 19.528 36.2615 18.76 35.3255 17.776C34.3895 16.792 33.9215 15.568 33.9215 14.104C33.9215 13 34.2335 12.016 34.8575 11.152C35.5055 10.264 36.4175 9.568 37.5935 9.064C38.7935 8.536 40.1735 8.272 41.7335 8.272ZM64.3919 27.1C63.6959 27.58 62.8799 27.952 61.9439 28.216C61.0319 28.48 60.1199 28.612 59.2079 28.612C55.0319 28.588 52.9439 26.284 52.9439 21.7V12.844H50.2439V8.884H52.9439V4.744L58.6319 4.096V8.884H63.0239L62.4119 12.844H58.6319V21.628C58.6319 22.516 58.7759 23.152 59.0639 23.536C59.3519 23.92 59.8079 24.112 60.4319 24.112C61.0799 24.112 61.7639 23.908 62.4839 23.5L64.3919 27.1ZM82.3258 18.064C82.3258 18.856 82.2898 19.54 82.2178 20.116H70.3738C70.5658 21.724 71.0218 22.852 71.7418 23.5C72.4618 24.148 73.4578 24.472 74.7298 24.472C75.4978 24.472 76.2418 24.34 76.9618 24.076C77.6818 23.788 78.4618 23.356 79.3018 22.78L81.6418 25.948C79.4098 27.724 76.9258 28.612 74.1898 28.612C71.0938 28.612 68.7178 27.7 67.0618 25.876C65.4058 24.052 64.5778 21.604 64.5778 18.532C64.5778 16.588 64.9258 14.848 65.6218 13.312C66.3178 11.752 67.3378 10.528 68.6818 9.64C70.0258 8.728 71.6338 8.272 73.5058 8.272C76.2658 8.272 78.4258 9.136 79.9858 10.864C81.5458 12.592 82.3258 14.992 82.3258 18.064ZM76.7458 16.444C76.6978 13.516 75.6658 12.052 73.6498 12.052C72.6658 12.052 71.8978 12.412 71.3458 13.132C70.8178 13.852 70.4938 15.04 70.3738 16.696H76.7458V16.444ZM95.8891 8.344C96.5851 8.344 97.2211 8.428 97.7971 8.596L96.8971 14.104C96.1771 13.936 95.6011 13.852 95.1691 13.852C94.0411 13.852 93.1771 14.248 92.5771 15.04C92.0011 15.808 91.5451 16.972 91.2091 18.532V28H85.5211V8.884H90.4891L90.9571 12.592C91.3891 11.272 92.0371 10.24 92.9011 9.496C93.7891 8.728 94.7851 8.344 95.8891 8.344ZM111.958 27.1C111.262 27.58 110.446 27.952 109.51 28.216C108.598 28.48 107.686 28.612 106.774 28.612C102.598 28.588 100.51 26.284 100.51 21.7V12.844H97.8103V8.884H100.51V4.744L106.198 4.096V8.884H110.59L109.978 12.844H106.198V21.628C106.198 22.516 106.342 23.152 106.63 23.536C106.918 23.92 107.374 24.112 107.998 24.112C108.646 24.112 109.33 23.908 110.05 23.5L111.958 27.1ZM125.053 8.272C126.709 8.272 128.005 8.776 128.941 9.784C129.877 10.792 130.345 12.208 130.345 14.032V28H124.657V15.004C124.657 14.044 124.501 13.384 124.189 13.024C123.877 12.64 123.433 12.448 122.857 12.448C121.705 12.448 120.601 13.264 119.545 14.896V28H113.857V1.288L119.545 0.711997V10.936C120.337 10.048 121.177 9.388 122.065 8.956C122.953 8.5 123.949 8.272 125.053 8.272ZM149.826 22.456C149.826 23.176 149.922 23.704 150.114 24.04C150.33 24.376 150.666 24.628 151.122 24.796L149.934 28.504C148.758 28.408 147.798 28.156 147.054 27.748C146.31 27.316 145.734 26.644 145.326 25.732C144.078 27.652 142.158 28.612 139.566 28.612C137.67 28.612 136.158 28.06 135.03 26.956C133.902 25.852 133.338 24.412 133.338 22.636C133.338 20.548 134.106 18.952 135.642 17.848C137.178 16.744 139.398 16.192 142.302 16.192H144.246V15.364C144.246 14.236 144.006 13.468 143.526 13.06C143.046 12.628 142.206 12.412 141.006 12.412C140.382 12.412 139.626 12.508 138.738 12.7C137.85 12.868 136.938 13.108 136.002 13.42L134.706 9.676C135.906 9.22 137.13 8.872 138.378 8.632C139.65 8.392 140.826 8.272 141.906 8.272C144.642 8.272 146.646 8.836 147.918 9.964C149.19 11.092 149.826 12.784 149.826 15.04V22.456ZM141.222 24.544C142.518 24.544 143.526 23.932 144.246 22.708V19.324H142.842C141.546 19.324 140.574 19.552 139.926 20.008C139.302 20.464 138.99 21.172 138.99 22.132C138.99 22.9 139.182 23.5 139.566 23.932C139.974 24.34 140.526 24.544 141.222 24.544ZM165.553 8.272C167.209 8.272 168.505 8.776 169.441 9.784C170.377 10.792 170.845 12.208 170.845 14.032V28H165.157V15.004C165.157 14.044 165.001 13.384 164.689 13.024C164.401 12.64 163.957 12.448 163.357 12.448C162.205 12.448 161.101 13.276 160.045 14.932V28H154.357V8.884H159.325L159.721 11.152C160.537 10.192 161.413 9.472 162.349 8.992C163.309 8.512 164.377 8.272 165.553 8.272ZM187.122 27.1C186.426 27.58 185.61 27.952 184.674 28.216C183.762 28.48 182.85 28.612 181.938 28.612C177.762 28.588 175.674 26.284 175.674 21.7V12.844H172.974V8.884H175.674V4.744L181.362 4.096V8.884H185.754L185.142 12.844H181.362V21.628C181.362 22.516 181.506 23.152 181.794 23.536C182.082 23.92 182.538 24.112 183.162 24.112C183.81 24.112 184.494 23.908 185.214 23.5L187.122 27.1ZM200.217 8.272C201.873 8.272 203.169 8.776 204.105 9.784C205.041 10.792 205.509 12.208 205.509 14.032V28H199.821V15.004C199.821 14.044 199.665 13.384 199.353 13.024C199.041 12.64 198.597 12.448 198.021 12.448C196.869 12.448 195.765 13.264 194.709 14.896V28H189.021V1.288L194.709 0.711997V10.936C195.501 10.048 196.341 9.388 197.229 8.956C198.117 8.5 199.113 8.272 200.217 8.272ZM226.466 18.064C226.466 18.856 226.43 19.54 226.358 20.116H214.514C214.706 21.724 215.162 22.852 215.882 23.5C216.602 24.148 217.598 24.472 218.87 24.472C219.638 24.472 220.382 24.34 221.102 24.076C221.822 23.788 222.602 23.356 223.442 22.78L225.782 25.948C223.55 27.724 221.066 28.612 218.33 28.612C215.234 28.612 212.858 27.7 211.202 25.876C209.546 24.052 208.718 21.604 208.718 18.532C208.718 16.588 209.066 14.848 209.762 13.312C210.458 11.752 211.478 10.528 212.822 9.64C214.166 8.728 215.774 8.272 217.646 8.272C220.406 8.272 222.566 9.136 224.126 10.864C225.686 12.592 226.466 14.992 226.466 18.064ZM220.886 16.444C220.838 13.516 219.806 12.052 217.79 12.052C216.806 12.052 216.038 12.412 215.486 13.132C214.958 13.852 214.634 15.04 214.514 16.696H220.886V16.444ZM239.928 28.036C239.16 30.508 237.9 32.404 236.148 33.724C234.42 35.068 232.092 35.824 229.164 35.992L228.552 31.996C230.376 31.756 231.72 31.348 232.584 30.772C233.472 30.196 234.18 29.272 234.708 28H232.764L226.932 8.884H232.98L236.4 24.364L240.144 8.884H246.012L239.928 28.036Z" fill="black"/>
</svg>
